<?xml version="1.0" encoding="UTF-8" standalone="no"?>
<!DOCTYPE svg PUBLIC "-//W3C//DTD SVG 1.1//EN"
 "http://www.w3.org/Graphics/SVG/1.1/DTD/svg11.dtd">
<!-- Generated by graphviz version 2.47.3 (20210619.1520)
 -->
<!-- Title: dependencies Pages: 1 -->
<svg width="204pt" height="247pt"
 viewBox="0.00 0.00 204.00 246.80" xmlns="http://www.w3.org/2000/svg" xmlns:xlink="http://www.w3.org/1999/xlink">
<g id="graph0" class="graph" transform="scale(1 1) rotate(0) translate(4 242.8)">
<title>dependencies</title>
<polygon fill="white" stroke="transparent" points="-4,4 -4,-242.8 200,-242.8 200,4 -4,4"/>
<text text-anchor="middle" x="98" y="-8.2" font-family="sans-serif" font-size="14.00">dependencies</text>
<g id="clust1" class="cluster">
<title>cluster_RewardsModule</title>
<polygon fill="none" stroke="black" stroke-dasharray="1,5" points="8,-32.8 8,-230.8 188,-230.8 188,-32.8 8,-32.8"/>
</g>
<g id="clust6" class="cluster">
<title>cluster_RewardsModule_providers</title>
<polygon fill="none" stroke="black" points="16,-40.8 16,-92.8 180,-92.8 180,-40.8 16,-40.8"/>
</g>
<g id="clust4" class="cluster">
<title>cluster_RewardsModule_exports</title>
<polygon fill="none" stroke="black" points="35,-170.8 35,-222.8 161,-222.8 161,-170.8 35,-170.8"/>
</g>
<!-- RewardsService  -->
<g id="node1" class="node">
<title>RewardsService </title>
<polygon fill="#fb8072" stroke="black" points="153.46,-214.8 42.54,-214.8 42.54,-178.8 153.46,-178.8 153.46,-214.8"/>
<text text-anchor="middle" x="98" y="-192.6" font-family="Times,serif" font-size="14.00">RewardsService </text>
</g>
<!-- RewardsModule -->
<g id="node2" class="node">
<title>RewardsModule</title>
<polygon fill="#8dd3c7" stroke="black" points="152.03,-149.8 149.03,-153.8 128.03,-153.8 125.03,-149.8 43.97,-149.8 43.97,-113.8 152.03,-113.8 152.03,-149.8"/>
<text text-anchor="middle" x="98" y="-127.6" font-family="Times,serif" font-size="14.00">RewardsModule</text>
</g>
<!-- RewardsModule&#45;&gt;RewardsService  -->
<g id="edge1" class="edge">
<title>RewardsModule&#45;&gt;RewardsService </title>
<path fill="none" stroke="black" stroke-dasharray="5,2" d="M98,-149.91C98,-149.91 98,-168.79 98,-168.79"/>
<polygon fill="black" stroke="black" points="94.5,-168.79 98,-178.79 101.5,-168.79 94.5,-168.79"/>
</g>
<!-- RewardsService -->
<g id="node3" class="node">
<title>RewardsService</title>
<ellipse fill="#fdb462" stroke="black" cx="98" cy="-66.8" rx="73.55" ry="18"/>
<text text-anchor="middle" x="98" y="-62.6" font-family="Times,serif" font-size="14.00">RewardsService</text>
</g>
<!-- RewardsService&#45;&gt;RewardsModule -->
<g id="edge2" class="edge">
<title>RewardsService&#45;&gt;RewardsModule</title>
<path fill="none" stroke="black" d="M98,-84.91C98,-84.91 98,-103.79 98,-103.79"/>
<polygon fill="black" stroke="black" points="94.5,-103.79 98,-113.79 101.5,-103.79 94.5,-103.79"/>
</g>
</g>
</svg>
