<?xml version="1.0" encoding="UTF-8" standalone="no"?>
<!DOCTYPE svg PUBLIC "-//W3C//DTD SVG 1.1//EN"
 "http://www.w3.org/Graphics/SVG/1.1/DTD/svg11.dtd">
<!-- Generated by graphviz version 2.47.3 (20210619.1520)
 -->
<!-- Title: dependencies Pages: 1 -->
<svg width="294pt" height="174pt"
 viewBox="0.00 0.00 294.00 173.80" xmlns="http://www.w3.org/2000/svg" xmlns:xlink="http://www.w3.org/1999/xlink">
<g id="graph0" class="graph" transform="scale(1 1) rotate(0) translate(4 169.8)">
<title>dependencies</title>
<polygon fill="white" stroke="transparent" points="-4,4 -4,-169.8 290,-169.8 290,4 -4,4"/>
<text text-anchor="middle" x="143" y="-8.2" font-family="sans-serif" font-size="14.00">dependencies</text>
<g id="clust1" class="cluster">
<title>cluster_ItemsModule</title>
<polygon fill="none" stroke="black" stroke-dasharray="1,5" points="8,-32.8 8,-157.8 278,-157.8 278,-32.8 8,-32.8"/>
</g>
<g id="clust3" class="cluster">
<title>cluster_ItemsModule_imports</title>
<polygon fill="none" stroke="black" points="162,-40.8 162,-92.8 270,-92.8 270,-40.8 162,-40.8"/>
</g>
<g id="clust6" class="cluster">
<title>cluster_ItemsModule_providers</title>
<polygon fill="none" stroke="black" points="16,-40.8 16,-92.8 154,-92.8 154,-40.8 16,-40.8"/>
</g>
<!-- UsersModule -->
<g id="node1" class="node">
<title>UsersModule</title>
<polygon fill="#8dd3c7" stroke="black" points="261.92,-84.8 258.92,-88.8 237.92,-88.8 234.92,-84.8 170.08,-84.8 170.08,-48.8 261.92,-48.8 261.92,-84.8"/>
<text text-anchor="middle" x="216" y="-62.6" font-family="Times,serif" font-size="14.00">UsersModule</text>
</g>
<!-- ItemsModule -->
<g id="node2" class="node">
<title>ItemsModule</title>
<polygon fill="#8dd3c7" stroke="black" points="195.15,-149.8 192.15,-153.8 171.15,-153.8 168.15,-149.8 104.85,-149.8 104.85,-113.8 195.15,-113.8 195.15,-149.8"/>
<text text-anchor="middle" x="150" y="-127.6" font-family="Times,serif" font-size="14.00">ItemsModule</text>
</g>
<!-- UsersModule&#45;&gt;ItemsModule -->
<g id="edge1" class="edge">
<title>UsersModule&#45;&gt;ItemsModule</title>
<path fill="none" stroke="black" d="M182.81,-84.91C182.81,-84.91 182.81,-103.79 182.81,-103.79"/>
<polygon fill="black" stroke="black" points="179.31,-103.79 182.81,-113.79 186.31,-103.79 179.31,-103.79"/>
</g>
<!-- ItemsService -->
<g id="node3" class="node">
<title>ItemsService</title>
<ellipse fill="#fdb462" stroke="black" cx="85" cy="-66.8" rx="61.39" ry="18"/>
<text text-anchor="middle" x="85" y="-62.6" font-family="Times,serif" font-size="14.00">ItemsService</text>
</g>
<!-- ItemsService&#45;&gt;ItemsModule -->
<g id="edge2" class="edge">
<title>ItemsService&#45;&gt;ItemsModule</title>
<path fill="none" stroke="black" d="M125.56,-80.58C125.56,-80.58 125.56,-103.35 125.56,-103.35"/>
<polygon fill="black" stroke="black" points="122.06,-103.35 125.56,-113.35 129.06,-103.35 122.06,-103.35"/>
</g>
</g>
</svg>
