<?xml version="1.0" encoding="UTF-8" standalone="no"?>
<!DOCTYPE svg PUBLIC "-//W3C//DTD SVG 1.1//EN"
 "http://www.w3.org/Graphics/SVG/1.1/DTD/svg11.dtd">
<!-- Generated by graphviz version 2.47.3 (20210619.1520)
 -->
<!-- Title: dependencies Pages: 1 -->
<svg width="499pt" height="174pt"
 viewBox="0.00 0.00 499.00 173.80" xmlns="http://www.w3.org/2000/svg" xmlns:xlink="http://www.w3.org/1999/xlink">
<g id="graph0" class="graph" transform="scale(1 1) rotate(0) translate(4 169.8)">
<title>dependencies</title>
<polygon fill="white" stroke="transparent" points="-4,4 -4,-169.8 495,-169.8 495,4 -4,4"/>
<text text-anchor="middle" x="245.5" y="-8.2" font-family="sans-serif" font-size="14.00">dependencies</text>
<g id="clust1" class="cluster">
<title>cluster_AppModule</title>
<polygon fill="none" stroke="black" stroke-dasharray="1,5" points="8,-32.8 8,-157.8 483,-157.8 483,-32.8 8,-32.8"/>
</g>
<g id="clust6" class="cluster">
<title>cluster_AppModule_providers</title>
<polygon fill="none" stroke="black" points="345,-40.8 345,-92.8 475,-92.8 475,-40.8 345,-40.8"/>
</g>
<g id="clust3" class="cluster">
<title>cluster_AppModule_imports</title>
<polygon fill="none" stroke="black" points="16,-40.8 16,-92.8 337,-92.8 337,-40.8 16,-40.8"/>
</g>
<!-- ItemsModule -->
<g id="node1" class="node">
<title>ItemsModule</title>
<polygon fill="#8dd3c7" stroke="black" points="329.15,-84.8 326.15,-88.8 305.15,-88.8 302.15,-84.8 238.85,-84.8 238.85,-48.8 329.15,-48.8 329.15,-84.8"/>
<text text-anchor="middle" x="284" y="-62.6" font-family="Times,serif" font-size="14.00">ItemsModule</text>
</g>
<!-- AppModule -->
<g id="node4" class="node">
<title>AppModule</title>
<polygon fill="#8dd3c7" stroke="black" points="271.66,-149.8 268.66,-153.8 247.66,-153.8 244.66,-149.8 188.34,-149.8 188.34,-113.8 271.66,-113.8 271.66,-149.8"/>
<text text-anchor="middle" x="230" y="-127.6" font-family="Times,serif" font-size="14.00">AppModule</text>
</g>
<!-- ItemsModule&#45;&gt;AppModule -->
<g id="edge1" class="edge">
<title>ItemsModule&#45;&gt;AppModule</title>
<path fill="none" stroke="black" d="M255.25,-84.91C255.25,-84.91 255.25,-103.79 255.25,-103.79"/>
<polygon fill="black" stroke="black" points="251.75,-103.79 255.25,-113.79 258.75,-103.79 251.75,-103.79"/>
</g>
<!-- StatsModule -->
<g id="node2" class="node">
<title>StatsModule</title>
<polygon fill="#8dd3c7" stroke="black" points="220.27,-84.8 217.27,-88.8 196.27,-88.8 193.27,-84.8 133.73,-84.8 133.73,-48.8 220.27,-48.8 220.27,-84.8"/>
<text text-anchor="middle" x="177" y="-62.6" font-family="Times,serif" font-size="14.00">StatsModule</text>
</g>
<!-- StatsModule&#45;&gt;AppModule -->
<g id="edge2" class="edge">
<title>StatsModule&#45;&gt;AppModule</title>
<path fill="none" stroke="black" d="M204.28,-84.91C204.28,-84.91 204.28,-103.79 204.28,-103.79"/>
<polygon fill="black" stroke="black" points="200.78,-103.79 204.28,-113.79 207.78,-103.79 200.78,-103.79"/>
</g>
<!-- UsersModule -->
<g id="node3" class="node">
<title>UsersModule</title>
<polygon fill="#8dd3c7" stroke="black" points="115.92,-84.8 112.92,-88.8 91.92,-88.8 88.92,-84.8 24.08,-84.8 24.08,-48.8 115.92,-48.8 115.92,-84.8"/>
<text text-anchor="middle" x="70" y="-62.6" font-family="Times,serif" font-size="14.00">UsersModule</text>
</g>
<!-- UsersModule&#45;&gt;AppModule -->
<g id="edge3" class="edge">
<title>UsersModule&#45;&gt;AppModule</title>
<path fill="none" stroke="black" d="M70,-84.91C70,-104.14 70,-131.8 70,-131.8 70,-131.8 177.96,-131.8 177.96,-131.8"/>
<polygon fill="black" stroke="black" points="177.96,-135.3 187.96,-131.8 177.96,-128.3 177.96,-135.3"/>
</g>
<!-- AppService -->
<g id="node5" class="node">
<title>AppService</title>
<ellipse fill="#fdb462" stroke="black" cx="410" cy="-66.8" rx="56.74" ry="18"/>
<text text-anchor="middle" x="410" y="-62.6" font-family="Times,serif" font-size="14.00">AppService</text>
</g>
<!-- AppService&#45;&gt;AppModule -->
<g id="edge4" class="edge">
<title>AppService&#45;&gt;AppModule</title>
<path fill="none" stroke="black" d="M410,-84.91C410,-104.14 410,-131.8 410,-131.8 410,-131.8 281.75,-131.8 281.75,-131.8"/>
<polygon fill="black" stroke="black" points="281.75,-128.3 271.75,-131.8 281.75,-135.3 281.75,-128.3"/>
</g>
</g>
</svg>
