<?xml version="1.0" encoding="UTF-8" standalone="no"?>
<!DOCTYPE svg PUBLIC "-//W3C//DTD SVG 1.1//EN"
 "http://www.w3.org/Graphics/SVG/1.1/DTD/svg11.dtd">
<!-- Generated by graphviz version 2.47.3 (20210619.1520)
 -->
<!-- Title: dependencies Pages: 1 -->
<svg width="626pt" height="174pt"
 viewBox="0.00 0.00 626.00 173.80" xmlns="http://www.w3.org/2000/svg" xmlns:xlink="http://www.w3.org/1999/xlink">
<g id="graph0" class="graph" transform="scale(1 1) rotate(0) translate(4 169.8)">
<title>dependencies</title>
<polygon fill="white" stroke="transparent" points="-4,4 -4,-169.8 622,-169.8 622,4 -4,4"/>
<text text-anchor="middle" x="309" y="-8.2" font-family="sans-serif" font-size="14.00">dependencies</text>
<g id="clust1" class="cluster">
<title>cluster_AppModule</title>
<polygon fill="none" stroke="black" stroke-dasharray="1,5" points="8,-32.8 8,-157.8 610,-157.8 610,-32.8 8,-32.8"/>
</g>
<g id="clust6" class="cluster">
<title>cluster_AppModule_providers</title>
<polygon fill="none" stroke="black" points="472,-40.8 472,-92.8 602,-92.8 602,-40.8 472,-40.8"/>
</g>
<g id="clust3" class="cluster">
<title>cluster_AppModule_imports</title>
<polygon fill="none" stroke="black" points="16,-40.8 16,-92.8 464,-92.8 464,-40.8 16,-40.8"/>
</g>
<!-- ItemsModule -->
<g id="node1" class="node">
<title>ItemsModule</title>
<polygon fill="#8dd3c7" stroke="black" points="456.15,-84.8 453.15,-88.8 432.15,-88.8 429.15,-84.8 365.85,-84.8 365.85,-48.8 456.15,-48.8 456.15,-84.8"/>
<text text-anchor="middle" x="411" y="-62.6" font-family="Times,serif" font-size="14.00">ItemsModule</text>
</g>
<!-- AppModule -->
<g id="node5" class="node">
<title>AppModule</title>
<polygon fill="#8dd3c7" stroke="black" points="334.66,-149.8 331.66,-153.8 310.66,-153.8 307.66,-149.8 251.34,-149.8 251.34,-113.8 334.66,-113.8 334.66,-149.8"/>
<text text-anchor="middle" x="293" y="-127.6" font-family="Times,serif" font-size="14.00">AppModule</text>
</g>
<!-- ItemsModule&#45;&gt;AppModule -->
<g id="edge1" class="edge">
<title>ItemsModule&#45;&gt;AppModule</title>
<path fill="none" stroke="black" d="M411,-84.82C411,-102.17 411,-125.8 411,-125.8 411,-125.8 344.93,-125.8 344.93,-125.8"/>
<polygon fill="black" stroke="black" points="344.93,-122.3 334.93,-125.8 344.93,-129.3 344.93,-122.3"/>
</g>
<!-- RewardsModule -->
<g id="node2" class="node">
<title>RewardsModule</title>
<polygon fill="#8dd3c7" stroke="black" points="347.03,-84.8 344.03,-88.8 323.03,-88.8 320.03,-84.8 238.97,-84.8 238.97,-48.8 347.03,-48.8 347.03,-84.8"/>
<text text-anchor="middle" x="293" y="-62.6" font-family="Times,serif" font-size="14.00">RewardsModule</text>
</g>
<!-- RewardsModule&#45;&gt;AppModule -->
<g id="edge2" class="edge">
<title>RewardsModule&#45;&gt;AppModule</title>
<path fill="none" stroke="black" d="M293,-84.91C293,-84.91 293,-103.79 293,-103.79"/>
<polygon fill="black" stroke="black" points="289.5,-103.79 293,-113.79 296.5,-103.79 289.5,-103.79"/>
</g>
<!-- StatsModule -->
<g id="node3" class="node">
<title>StatsModule</title>
<polygon fill="#8dd3c7" stroke="black" points="220.27,-84.8 217.27,-88.8 196.27,-88.8 193.27,-84.8 133.73,-84.8 133.73,-48.8 220.27,-48.8 220.27,-84.8"/>
<text text-anchor="middle" x="177" y="-62.6" font-family="Times,serif" font-size="14.00">StatsModule</text>
</g>
<!-- StatsModule&#45;&gt;AppModule -->
<g id="edge3" class="edge">
<title>StatsModule&#45;&gt;AppModule</title>
<path fill="none" stroke="black" d="M177,-84.82C177,-102.17 177,-125.8 177,-125.8 177,-125.8 241.12,-125.8 241.12,-125.8"/>
<polygon fill="black" stroke="black" points="241.12,-129.3 251.12,-125.8 241.12,-122.3 241.12,-129.3"/>
</g>
<!-- UsersModule -->
<g id="node4" class="node">
<title>UsersModule</title>
<polygon fill="#8dd3c7" stroke="black" points="115.92,-84.8 112.92,-88.8 91.92,-88.8 88.92,-84.8 24.08,-84.8 24.08,-48.8 115.92,-48.8 115.92,-84.8"/>
<text text-anchor="middle" x="70" y="-62.6" font-family="Times,serif" font-size="14.00">UsersModule</text>
</g>
<!-- UsersModule&#45;&gt;AppModule -->
<g id="edge4" class="edge">
<title>UsersModule&#45;&gt;AppModule</title>
<path fill="none" stroke="black" d="M70,-85.08C70,-106.12 70,-137.8 70,-137.8 70,-137.8 241.32,-137.8 241.32,-137.8"/>
<polygon fill="black" stroke="black" points="241.32,-141.3 251.32,-137.8 241.32,-134.3 241.32,-141.3"/>
</g>
<!-- AppService -->
<g id="node6" class="node">
<title>AppService</title>
<ellipse fill="#fdb462" stroke="black" cx="537" cy="-66.8" rx="56.74" ry="18"/>
<text text-anchor="middle" x="537" y="-62.6" font-family="Times,serif" font-size="14.00">AppService</text>
</g>
<!-- AppService&#45;&gt;AppModule -->
<g id="edge5" class="edge">
<title>AppService&#45;&gt;AppModule</title>
<path fill="none" stroke="black" d="M537,-85.08C537,-106.12 537,-137.8 537,-137.8 537,-137.8 344.67,-137.8 344.67,-137.8"/>
<polygon fill="black" stroke="black" points="344.67,-134.3 334.67,-137.8 344.67,-141.3 344.67,-134.3"/>
</g>
</g>
</svg>
