<?xml version="1.0" encoding="UTF-8" standalone="no"?>
<!DOCTYPE svg PUBLIC "-//W3C//DTD SVG 1.1//EN"
 "http://www.w3.org/Graphics/SVG/1.1/DTD/svg11.dtd">
<!-- Generated by graphviz version 2.47.3 (20210619.1520)
 -->
<!-- Title: dependencies Pages: 1 -->
<svg width="1173pt" height="391pt"
 viewBox="0.00 0.00 1173.00 390.80" xmlns="http://www.w3.org/2000/svg" xmlns:xlink="http://www.w3.org/1999/xlink">
<g id="graph0" class="graph" transform="scale(1 1) rotate(0) translate(4 386.8)">
<title>dependencies</title>
<polygon fill="white" stroke="transparent" points="-4,4 -4,-386.8 1169,-386.8 1169,4 -4,4"/>
<text text-anchor="middle" x="582.5" y="-8.2" font-family="sans-serif" font-size="14.00">dependencies</text>
<g id="clust1" class="cluster">
<title>cluster_AppModule</title>
<polygon fill="none" stroke="black" stroke-dasharray="1,5" points="290,-108.8 290,-374.8 673,-374.8 673,-108.8 290,-108.8"/>
</g>
<g id="clust3" class="cluster">
<title>cluster_AppModule_imports</title>
<polygon fill="none" stroke="black" points="436,-116.8 436,-309.8 665,-309.8 665,-116.8 436,-116.8"/>
</g>
<g id="clust6" class="cluster">
<title>cluster_AppModule_providers</title>
<polygon fill="none" stroke="black" points="298,-257.8 298,-309.8 428,-309.8 428,-257.8 298,-257.8"/>
</g>
<g id="clust7" class="cluster">
<title>cluster_ItemsModule</title>
<polygon fill="none" stroke="black" stroke-dasharray="1,5" points="1003,-173.8 1003,-241.8 1157,-241.8 1157,-173.8 1003,-173.8"/>
</g>
<g id="clust12" class="cluster">
<title>cluster_ItemsModule_providers</title>
<polygon fill="none" stroke="black" points="1011,-181.8 1011,-233.8 1149,-233.8 1149,-181.8 1011,-181.8"/>
</g>
<g id="clust13" class="cluster">
<title>cluster_RewardsModule</title>
<polygon fill="none" stroke="black" stroke-dasharray="1,5" points="681,-173.8 681,-241.8 995,-241.8 995,-173.8 681,-173.8"/>
</g>
<g id="clust16" class="cluster">
<title>cluster_RewardsModule_exports</title>
<polygon fill="none" stroke="black" points="861,-181.8 861,-233.8 987,-233.8 987,-181.8 861,-181.8"/>
</g>
<g id="clust18" class="cluster">
<title>cluster_RewardsModule_providers</title>
<polygon fill="none" stroke="black" points="689,-181.8 689,-233.8 853,-233.8 853,-181.8 689,-181.8"/>
</g>
<g id="clust25" class="cluster">
<title>cluster_StatsModule</title>
<polygon fill="none" stroke="black" stroke-dasharray="1,5" points="412,-32.8 412,-100.8 562,-100.8 562,-32.8 412,-32.8"/>
</g>
<g id="clust30" class="cluster">
<title>cluster_StatsModule_providers</title>
<polygon fill="none" stroke="black" points="420,-40.8 420,-92.8 554,-92.8 554,-40.8 420,-40.8"/>
</g>
<g id="clust31" class="cluster">
<title>cluster_UsersModule</title>
<polygon fill="none" stroke="black" stroke-dasharray="1,5" points="8,-249.8 8,-317.8 282,-317.8 282,-249.8 8,-249.8"/>
</g>
<g id="clust34" class="cluster">
<title>cluster_UsersModule_exports</title>
<polygon fill="none" stroke="black" points="164,-257.8 164,-309.8 274,-309.8 274,-257.8 164,-257.8"/>
</g>
<g id="clust36" class="cluster">
<title>cluster_UsersModule_providers</title>
<polygon fill="none" stroke="black" points="16,-257.8 16,-309.8 156,-309.8 156,-257.8 16,-257.8"/>
</g>
<!-- ItemsModule -->
<g id="node1" class="node">
<title>ItemsModule</title>
<polygon fill="#8dd3c7" stroke="black" points="636.15,-301.8 633.15,-305.8 612.15,-305.8 609.15,-301.8 545.85,-301.8 545.85,-265.8 636.15,-265.8 636.15,-301.8"/>
<text text-anchor="middle" x="591" y="-279.6" font-family="Times,serif" font-size="14.00">ItemsModule</text>
</g>
<!-- AppModule -->
<g id="node5" class="node">
<title>AppModule</title>
<polygon fill="#8dd3c7" stroke="black" points="548.66,-366.8 545.66,-370.8 524.66,-370.8 521.66,-366.8 465.34,-366.8 465.34,-330.8 548.66,-330.8 548.66,-366.8"/>
<text text-anchor="middle" x="507" y="-344.6" font-family="Times,serif" font-size="14.00">AppModule</text>
</g>
<!-- ItemsModule&#45;&gt;AppModule -->
<g id="edge1" class="edge">
<title>ItemsModule&#45;&gt;AppModule</title>
<path fill="none" stroke="black" d="M545.56,-289.8C541.69,-289.8 539.21,-289.8 539.21,-289.8 539.21,-289.8 539.21,-320.78 539.21,-320.78"/>
<polygon fill="black" stroke="black" points="535.71,-320.78 539.21,-330.78 542.71,-320.78 535.71,-320.78"/>
</g>
<!-- RewardsModule -->
<g id="node2" class="node">
<title>RewardsModule</title>
<polygon fill="#8dd3c7" stroke="black" points="657.03,-160.8 654.03,-164.8 633.03,-164.8 630.03,-160.8 548.97,-160.8 548.97,-124.8 657.03,-124.8 657.03,-160.8"/>
<text text-anchor="middle" x="603" y="-138.6" font-family="Times,serif" font-size="14.00">RewardsModule</text>
</g>
<!-- UsersModule -->
<g id="node4" class="node">
<title>UsersModule</title>
<polygon fill="#8dd3c7" stroke="black" points="617.92,-225.8 614.92,-229.8 593.92,-229.8 590.92,-225.8 526.08,-225.8 526.08,-189.8 617.92,-189.8 617.92,-225.8"/>
<text text-anchor="middle" x="572" y="-203.6" font-family="Times,serif" font-size="14.00">UsersModule</text>
</g>
<!-- RewardsModule&#45;&gt;UsersModule -->
<g id="edge11" class="edge">
<title>RewardsModule&#45;&gt;UsersModule</title>
<path fill="none" stroke="black" d="M583.22,-160.91C583.22,-160.91 583.22,-179.79 583.22,-179.79"/>
<polygon fill="black" stroke="black" points="579.72,-179.79 583.22,-189.79 586.72,-179.79 579.72,-179.79"/>
</g>
<!-- RewardsModule&#45;&gt;AppModule -->
<g id="edge2" class="edge">
<title>RewardsModule&#45;&gt;AppModule</title>
<path fill="none" stroke="black" d="M643.3,-161.08C643.3,-211.5 643.3,-348.8 643.3,-348.8 643.3,-348.8 559.01,-348.8 559.01,-348.8"/>
<polygon fill="black" stroke="black" points="559.01,-345.3 549.01,-348.8 559.01,-352.3 559.01,-345.3"/>
</g>
<!-- RewardsService  -->
<g id="node8" class="node">
<title>RewardsService </title>
<polygon fill="#fb8072" stroke="black" points="979.46,-225.8 868.54,-225.8 868.54,-189.8 979.46,-189.8 979.46,-225.8"/>
<text text-anchor="middle" x="924" y="-203.6" font-family="Times,serif" font-size="14.00">RewardsService </text>
</g>
<!-- RewardsModule&#45;&gt;RewardsService  -->
<g id="edge8" class="edge">
<title>RewardsModule&#45;&gt;RewardsService </title>
<path fill="none" stroke="black" stroke-dasharray="5,2" d="M657.09,-142.8C748.57,-142.8 924,-142.8 924,-142.8 924,-142.8 924,-179.69 924,-179.69"/>
<polygon fill="black" stroke="black" points="920.5,-179.69 924,-189.69 927.5,-179.69 920.5,-179.69"/>
</g>
<!-- StatsModule -->
<g id="node3" class="node">
<title>StatsModule</title>
<polygon fill="#8dd3c7" stroke="black" points="530.27,-160.8 527.27,-164.8 506.27,-164.8 503.27,-160.8 443.73,-160.8 443.73,-124.8 530.27,-124.8 530.27,-160.8"/>
<text text-anchor="middle" x="487" y="-138.6" font-family="Times,serif" font-size="14.00">StatsModule</text>
</g>
<!-- StatsModule&#45;&gt;AppModule -->
<g id="edge3" class="edge">
<title>StatsModule&#45;&gt;AppModule</title>
<path fill="none" stroke="black" d="M505.92,-161.08C505.92,-161.08 505.92,-320.56 505.92,-320.56"/>
<polygon fill="black" stroke="black" points="502.42,-320.56 505.92,-330.56 509.42,-320.56 502.42,-320.56"/>
</g>
<!-- UsersModule&#45;&gt;ItemsModule -->
<g id="edge6" class="edge">
<title>UsersModule&#45;&gt;ItemsModule</title>
<path fill="none" stroke="black" d="M581.69,-225.81C581.69,-225.81 581.69,-255.65 581.69,-255.65"/>
<polygon fill="black" stroke="black" points="578.19,-255.65 581.69,-265.65 585.19,-255.65 578.19,-255.65"/>
</g>
<!-- UsersModule&#45;&gt;AppModule -->
<g id="edge4" class="edge">
<title>UsersModule&#45;&gt;AppModule</title>
<path fill="none" stroke="black" d="M532.75,-225.94C532.75,-225.94 532.75,-320.73 532.75,-320.73"/>
<polygon fill="black" stroke="black" points="529.25,-320.72 532.75,-330.73 536.25,-320.73 529.25,-320.72"/>
</g>
<!-- UsersService  -->
<g id="node11" class="node">
<title>UsersService </title>
<polygon fill="#fb8072" stroke="black" points="265.85,-301.8 172.15,-301.8 172.15,-265.8 265.85,-265.8 265.85,-301.8"/>
<text text-anchor="middle" x="219" y="-279.6" font-family="Times,serif" font-size="14.00">UsersService </text>
</g>
<!-- UsersModule&#45;&gt;UsersService  -->
<g id="edge12" class="edge">
<title>UsersModule&#45;&gt;UsersService </title>
<path fill="none" stroke="black" stroke-dasharray="5,2" d="M526.21,-213.8C430.7,-213.8 219,-213.8 219,-213.8 219,-213.8 219,-255.77 219,-255.77"/>
<polygon fill="black" stroke="black" points="215.5,-255.77 219,-265.77 222.5,-255.77 215.5,-255.77"/>
</g>
<!-- AppService -->
<g id="node6" class="node">
<title>AppService</title>
<ellipse fill="#fdb462" stroke="black" cx="363" cy="-283.8" rx="56.74" ry="18"/>
<text text-anchor="middle" x="363" y="-279.6" font-family="Times,serif" font-size="14.00">AppService</text>
</g>
<!-- AppService&#45;&gt;AppModule -->
<g id="edge5" class="edge">
<title>AppService&#45;&gt;AppModule</title>
<path fill="none" stroke="black" d="M416.39,-277.8C449.42,-277.8 485.54,-277.8 485.54,-277.8 485.54,-277.8 485.54,-320.52 485.54,-320.52"/>
<polygon fill="black" stroke="black" points="482.04,-320.52 485.54,-330.52 489.04,-320.52 482.04,-320.52"/>
</g>
<!-- ItemsService -->
<g id="node7" class="node">
<title>ItemsService</title>
<ellipse fill="#fdb462" stroke="black" cx="1080" cy="-207.8" rx="61.39" ry="18"/>
<text text-anchor="middle" x="1080" y="-203.6" font-family="Times,serif" font-size="14.00">ItemsService</text>
</g>
<!-- ItemsService&#45;&gt;ItemsModule -->
<g id="edge7" class="edge">
<title>ItemsService&#45;&gt;ItemsModule</title>
<path fill="none" stroke="black" d="M1080,-225.81C1080,-248.29 1080,-283.8 1080,-283.8 1080,-283.8 646.56,-283.8 646.56,-283.8"/>
<polygon fill="black" stroke="black" points="646.56,-280.3 636.56,-283.8 646.56,-287.3 646.56,-280.3"/>
</g>
<!-- RewardsService -->
<g id="node9" class="node">
<title>RewardsService</title>
<ellipse fill="#fdb462" stroke="black" cx="771" cy="-207.8" rx="73.55" ry="18"/>
<text text-anchor="middle" x="771" y="-203.6" font-family="Times,serif" font-size="14.00">RewardsService</text>
</g>
<!-- RewardsService&#45;&gt;RewardsModule -->
<g id="edge9" class="edge">
<title>RewardsService&#45;&gt;RewardsModule</title>
<path fill="none" stroke="black" d="M696.96,-207.8C671.97,-207.8 650.28,-207.8 650.28,-207.8 650.28,-207.8 650.28,-170.91 650.28,-170.91"/>
<polygon fill="black" stroke="black" points="653.78,-170.91 650.28,-160.91 646.78,-170.91 653.78,-170.91"/>
</g>
<!-- StatsService -->
<g id="node10" class="node">
<title>StatsService</title>
<ellipse fill="#fdb462" stroke="black" cx="487" cy="-66.8" rx="58.54" ry="18"/>
<text text-anchor="middle" x="487" y="-62.6" font-family="Times,serif" font-size="14.00">StatsService</text>
</g>
<!-- StatsService&#45;&gt;StatsModule -->
<g id="edge10" class="edge">
<title>StatsService&#45;&gt;StatsModule</title>
<path fill="none" stroke="black" d="M487,-84.81C487,-84.81 487,-114.65 487,-114.65"/>
<polygon fill="black" stroke="black" points="483.5,-114.65 487,-124.65 490.5,-114.65 483.5,-114.65"/>
</g>
<!-- UsersService -->
<g id="node12" class="node">
<title>UsersService</title>
<ellipse fill="#fdb462" stroke="black" cx="86" cy="-283.8" rx="61.95" ry="18"/>
<text text-anchor="middle" x="86" y="-279.6" font-family="Times,serif" font-size="14.00">UsersService</text>
</g>
<!-- UsersService&#45;&gt;UsersModule -->
<g id="edge13" class="edge">
<title>UsersService&#45;&gt;UsersModule</title>
<path fill="none" stroke="black" d="M86,-265.6C86,-241.44 86,-201.8 86,-201.8 86,-201.8 516.28,-201.8 516.28,-201.8"/>
<polygon fill="black" stroke="black" points="516.28,-205.3 526.28,-201.8 516.28,-198.3 516.28,-205.3"/>
</g>
</g>
</svg>
